<svg xmlns="http://www.w3.org/2000/svg" xmlns:xlink="http://www.w3.org/1999/xlink" viewBox="0 0 64 64"><linearGradient id="4mU0_HDsJp2MQbnKQxoyna" x1="32" x2="32" y1="397" y2="341.988" gradientTransform="matrix(1 0 0 -1 0 402)" gradientUnits="userSpaceOnUse" spreadMethod="reflect"><stop offset="0" stop-color="#1a6dff"/><stop offset="1" stop-color="#c822ff"/></linearGradient><path fill="url(#4mU0_HDsJp2MQbnKQxoyna)" d="M51.121,15.707l-8.828-8.828C41.727,6.313,40.973,6,40.171,6H15c-1.654,0-3,1.346-3,3v40v2v4 c0,1.654,1.346,3,3,3h34c1.654,0,3-1.346,3-3v-4v-2V17.828C52,17.027,51.688,16.273,51.121,15.707z M48.586,16H43 c-0.551,0-1-0.448-1-1V9.414L48.586,16z M49,56H15c-0.551,0-1-0.448-1-1v-1.185C14.314,53.928,14.648,54,15,54h34 c0.352,0,0.686-0.072,1-0.184V55C50,55.552,49.551,56,49,56z M50,51c0,0.552-0.449,1-1,1H15c-0.551,0-1-0.448-1-1v-2V9 c0-0.552,0.449-1,1-1h25v7c0,1.654,1.346,3,3,3h7v31V51z"/><linearGradient id="4mU0_HDsJp2MQbnKQxoynb" x1="22.357" x2="22.357" y1="25.3" y2="40.714" gradientUnits="userSpaceOnUse" spreadMethod="reflect"><stop offset="0" stop-color="#6dc7ff"/><stop offset="1" stop-color="#e6abff"/></linearGradient><path fill="url(#4mU0_HDsJp2MQbnKQxoynb)" d="M25.3,40.714l-7-6.865c-0.189-0.186-0.297-0.439-0.3-0.704 c-0.003-0.266,0.101-0.521,0.286-0.71l7-7.135l1.428,1.4l-6.3,6.421l6.286,6.165L25.3,40.714z"/><linearGradient id="4mU0_HDsJp2MQbnKQxoync" x1="41.643" x2="41.643" y1="25.3" y2="40.714" gradientUnits="userSpaceOnUse" spreadMethod="reflect"><stop offset="0" stop-color="#6dc7ff"/><stop offset="1" stop-color="#e6abff"/></linearGradient><path fill="url(#4mU0_HDsJp2MQbnKQxoync)" d="M38.7,40.714l-1.4-1.428l6.286-6.165l-6.3-6.421l1.428-1.4l7,7.135 c0.186,0.189,0.289,0.444,0.286,0.71c-0.003,0.265-0.11,0.519-0.3,0.704L38.7,40.714z"/><linearGradient id="4mU0_HDsJp2MQbnKQxoynd" x1="32" x2="32" y1="22.713" y2="43.287" gradientUnits="userSpaceOnUse" spreadMethod="reflect"><stop offset="0" stop-color="#6dc7ff"/><stop offset="1" stop-color="#e6abff"/></linearGradient><path fill="url(#4mU0_HDsJp2MQbnKQxoynd)" d="M29.958 43.287L28.042 42.713 34.042 22.713 35.958 23.287z"/></svg>